<svg width="1168" height="560" viewBox="0 0 1168 560" fill="none" xmlns="http://www.w3.org/2000/svg">
<g clip-path="url(#clip0_103_81)">
<path d="M196 0H60C26.8629 0 0 26.8629 0 60V196C0 229.137 26.8629 256 60 256H196C229.137 256 256 229.137 256 196V60C256 26.8629 229.137 0 196 0Z" fill="#007ACC"/>
<path d="M56.6112 128.849L56.5299 139.333H73.1902H89.8505V186.673V234.012H101.635H113.419V186.673V139.333H130.079H146.739V129.052C146.739 123.363 146.618 118.609 146.455 118.487C146.333 118.325 126.056 118.243 101.472 118.284L56.7331 118.406L56.6112 128.849Z" fill="white"/>
<path d="M206.567 118.108C213.068 119.734 218.026 122.619 222.577 127.332C224.934 129.852 228.428 134.444 228.713 135.541C228.794 135.866 217.66 143.343 210.915 147.528C210.671 147.691 209.695 146.634 208.598 145.009C205.307 140.214 201.853 138.141 196.57 137.776C188.809 137.247 183.811 141.311 183.852 148.097C183.852 150.088 184.136 151.266 184.949 152.892C186.655 156.427 189.825 158.54 199.781 162.847C218.107 170.731 225.949 175.932 230.826 183.327C236.271 191.576 237.49 204.742 233.792 214.535C229.729 225.181 219.651 232.414 205.469 234.812C201.081 235.584 190.678 235.462 185.965 234.609C175.684 232.78 165.932 227.701 159.918 221.037C157.561 218.436 152.969 211.65 153.254 211.162C153.375 211 154.432 210.35 155.61 209.659C156.748 209.009 161.056 206.53 165.119 204.173L172.474 199.906L174.018 202.182C176.172 205.473 180.885 209.984 183.73 211.487C191.897 215.795 203.113 215.185 208.639 210.228C210.996 208.074 211.971 205.839 211.971 202.548C211.971 199.581 211.605 198.281 210.061 196.046C208.07 193.202 204.007 190.804 192.466 185.806C179.26 180.117 173.571 176.582 168.37 170.974C165.363 167.724 162.518 162.522 161.34 158.174C160.365 154.558 160.121 145.496 160.893 141.839C163.615 129.08 173.246 120.181 187.143 117.539C191.654 116.686 202.137 117.011 206.567 118.108Z" fill="white"/>
</g>
<g clip-path="url(#clip1_103_81)">
<path d="M500 0H364C330.863 0 304 26.8629 304 60V196C304 229.137 330.863 256 364 256H500C533.137 256 560 229.137 560 196V60C560 26.8629 533.137 0 500 0Z" fill="#24382A"/>
<path d="M480.87 93.1324L434.083 160.781C433.587 161.498 432.87 162.035 432.04 162.311C431.21 162.587 430.313 162.584 429.484 162.307C428.656 162.029 427.942 161.489 427.45 160.77C426.959 160.05 426.716 159.191 426.76 158.322L428.633 120.973L398.403 114.562C397.757 114.425 397.155 114.132 396.651 113.708C396.146 113.284 395.754 112.743 395.51 112.132C395.266 111.521 395.178 110.859 395.252 110.205C395.326 109.552 395.561 108.926 395.936 108.384L442.724 40.7357C443.22 40.018 443.938 39.4809 444.768 39.2055C445.598 38.9301 446.495 38.9315 447.323 39.2097C448.151 39.4878 448.865 40.0275 449.357 40.7468C449.849 41.466 450.091 42.3255 450.047 43.195L448.175 80.5443L478.404 86.9548C479.05 87.0917 479.652 87.3852 480.157 87.809C480.662 88.233 481.053 88.7745 481.296 89.3855C481.541 89.9964 481.629 90.658 481.555 91.3116C481.481 91.9652 481.246 92.5903 480.87 93.1324Z" fill="#FCC72B"/>
<path d="M431.874 217.537C430.629 217.538 429.397 217.295 428.247 216.819C427.097 216.342 426.053 215.643 425.174 214.763L380.966 170.557C379.197 168.779 378.206 166.372 378.209 163.865C378.212 161.357 379.21 158.951 380.983 157.179C382.757 155.405 385.161 154.407 387.669 154.403C390.177 154.4 392.584 155.391 394.362 157.159L431.874 194.667L513.592 112.952C515.374 111.199 517.775 110.221 520.274 110.232C522.774 110.242 525.168 111.239 526.934 113.006C528.701 114.773 529.699 117.167 529.71 119.666C529.719 122.165 528.741 124.567 526.988 126.349L438.571 214.763C437.693 215.644 436.649 216.342 435.499 216.819C434.35 217.295 433.118 217.538 431.874 217.537Z" fill="#729B1B"/>
<path d="M431.836 217.537C433.08 217.538 434.312 217.295 435.462 216.819C436.612 216.342 437.656 215.643 438.535 214.763L482.744 170.557C484.512 168.779 485.504 166.372 485.5 163.865C485.497 161.357 484.499 158.951 482.726 157.179C480.952 155.405 478.548 154.407 476.04 154.403C473.532 154.4 471.125 155.391 469.346 157.159L431.836 194.667L350.117 112.952C348.336 111.199 345.934 110.221 343.435 110.232C340.936 110.242 338.542 111.239 336.775 113.006C335.007 114.773 334.01 117.167 334 119.666C333.99 122.165 334.968 124.567 336.72 126.349L425.138 214.763C426.017 215.644 427.061 216.342 428.21 216.819C429.359 217.295 430.591 217.538 431.836 217.537Z" fill="#729B1B" fill-opacity="0.5"/>
</g>
<g clip-path="url(#clip2_103_81)">
<path d="M804 0H668C634.863 0 608 26.8629 608 60V196C608 229.137 634.863 256 668 256H804C837.137 256 864 229.137 864 196V60C864 26.8629 837.137 0 804 0Z" fill="#242938"/>
<path d="M814.107 98.7805H765.327V50H814.107V98.7805Z" fill="#F9AD00"/>
<path d="M760.439 98.7805H711.659V50H760.439V98.7805Z" fill="#F9AD00"/>
<path d="M706.78 98.7805H658V50H706.78V98.7805Z" fill="#F9AD00"/>
<path d="M814.107 152.439H765.327V103.659H814.107V152.439Z" fill="#F9AD00"/>
<path d="M760.439 152.439H711.659V103.659H760.439V152.439Z" fill="#4E4E4E"/>
<path d="M760.439 206.098H711.659V157.317H760.439V206.098Z" fill="#4E4E4E"/>
<path d="M814.107 206.098H765.327V157.317H814.107V206.098Z" fill="#4E4E4E"/>
<path d="M706.78 206.098H658V157.317H706.78V206.098Z" fill="#4E4E4E"/>
</g>
<g clip-path="url(#clip3_103_81)">
<path d="M1108 0H972C938.863 0 912 26.8629 912 60V196C912 229.137 938.863 256 972 256H1108C1141.14 256 1168 229.137 1168 196V60C1168 26.8629 1141.14 0 1108 0Z" fill="#242938"/>
<path d="M1139.09 57.6016L1045.26 225.389C1043.32 228.854 1038.34 228.874 1036.38 225.427L940.682 57.6177C938.54 53.861 941.752 49.3105 946.01 50.0715L1039.94 66.8613C1040.54 66.9684 1041.16 66.9674 1041.75 66.8582L1133.72 50.0955C1137.97 49.3222 1141.19 53.8374 1139.09 57.6016Z" fill="url(#paint0_linear_103_81)"/>
<path d="M1084.69 28.0492L1015.25 41.6554C1014.11 41.879 1013.26 42.8462 1013.19 44.007L1008.92 116.148C1008.82 117.847 1010.38 119.166 1012.04 118.783L1031.37 114.322C1033.18 113.905 1034.82 115.498 1034.44 117.317L1028.7 145.443C1028.31 147.336 1030.09 148.954 1031.94 148.393L1043.88 144.765C1045.73 144.203 1047.51 145.826 1047.12 147.721L1037.99 191.9C1037.42 194.664 1041.1 196.171 1042.63 193.801L1043.65 192.219L1100.23 79.2992C1101.18 77.4085 1099.55 75.2526 1097.47 75.6534L1077.57 79.494C1075.7 79.8545 1074.11 78.113 1074.64 76.2834L1087.63 31.2582C1088.16 29.4255 1086.56 27.6825 1084.69 28.0492Z" fill="url(#paint1_linear_103_81)"/>
</g>
<g clip-path="url(#clip4_103_81)">
<path d="M196 304H60C26.8629 304 0 330.863 0 364V500C0 533.137 26.8629 560 60 560H196C229.137 560 256 533.137 256 500V364C256 330.863 229.137 304 196 304Z" fill="#F03C2E"/>
<mask id="mask0_103_81" style="mask-type:luminance" maskUnits="userSpaceOnUse" x="28" y="332" width="200" height="200">
<path d="M228 332H28V532H228V332Z" fill="white"/>
</mask>
<g mask="url(#mask0_103_81)">
<path d="M224.225 423.094L136.906 335.775C135.711 334.579 134.291 333.63 132.729 332.982C131.166 332.335 129.491 332.002 127.8 332.002C126.109 332.002 124.434 332.335 122.871 332.982C121.309 333.63 119.889 334.579 118.694 335.775L100.569 353.9L123.569 376.9C128.919 375.025 135.044 376.306 139.306 380.569C141.335 382.601 142.752 385.164 143.394 387.963C144.036 390.763 143.878 393.686 142.937 396.4L165.106 418.569C170.469 416.719 176.656 417.912 180.937 422.206C182.361 423.63 183.49 425.32 184.26 427.18C185.03 429.04 185.426 431.033 185.426 433.046C185.425 435.059 185.029 437.052 184.258 438.912C183.487 440.771 182.358 442.461 180.934 443.884C179.511 445.308 177.821 446.436 175.961 447.206C174.101 447.977 172.108 448.373 170.095 448.372C168.082 448.372 166.088 447.975 164.229 447.205C162.369 446.434 160.679 445.305 159.256 443.881C154.756 439.381 153.644 432.756 155.919 427.212L135.244 406.537V460.944C136.745 461.686 138.116 462.666 139.306 463.844C140.729 465.267 141.858 466.956 142.629 468.816C143.399 470.675 143.795 472.668 143.795 474.681C143.795 476.694 143.399 478.687 142.629 480.546C141.858 482.406 140.729 484.096 139.306 485.519C137.883 486.942 136.193 488.071 134.334 488.841C132.474 489.611 130.481 490.008 128.469 490.008C126.456 490.008 124.463 489.611 122.604 488.841C120.744 488.071 119.054 486.942 117.631 485.519C116.206 484.096 115.076 482.407 114.305 480.548C113.533 478.688 113.136 476.694 113.136 474.681C113.136 472.668 113.533 470.675 114.305 468.815C115.076 466.955 116.206 465.266 117.631 463.844C119.112 462.369 120.756 461.25 122.65 460.5V405.587C120.825 404.837 119.112 403.731 117.631 402.244C115.479 400.094 114.016 397.353 113.428 394.368C112.841 391.384 113.155 388.292 114.331 385.488L91.6437 362.813L31.7687 422.625C30.5716 423.821 29.6219 425.241 28.9739 426.804C28.3259 428.367 27.9924 430.042 27.9924 431.734C27.9924 433.426 28.3259 435.102 28.9739 436.665C29.6219 438.228 30.5716 439.648 31.7687 440.844L119.094 528.156C120.289 529.352 121.709 530.301 123.271 530.949C124.834 531.596 126.509 531.929 128.2 531.929C129.891 531.929 131.566 531.596 133.129 530.949C134.691 530.301 136.111 529.352 137.306 528.156L224.225 441.375C225.422 440.179 226.372 438.759 227.02 437.196C227.668 435.633 228.001 433.958 228.001 432.266C228.001 430.574 227.668 428.898 227.02 427.335C226.372 425.772 225.422 424.352 224.225 423.156" fill="white"/>
</g>
</g>
<g clip-path="url(#clip5_103_81)">
<path d="M500 304H364C330.863 304 304 330.863 304 364V500C304 533.137 330.863 560 364 560H500C533.137 560 560 533.137 560 500V364C560 330.863 533.137 304 500 304Z" fill="#2396ED"/>
<path d="M445.187 426.123H465.904V407.379H445.187V426.123ZM420.525 426.123H441.241V407.379H420.525V426.123ZM396.355 426.123H417.072V407.379H396.355V426.123ZM372.186 426.123H392.409V407.379H372.186V426.123ZM347.523 426.123H368.24V407.379H347.523V426.123ZM372.186 403.433H392.409V384.69H372.186V403.433ZM396.355 403.433H417.072V384.69H396.355V403.433ZM420.525 403.433H441.241V384.69H420.525V403.433ZM420.525 380.744H441.241V362H420.525V380.744ZM532 417.738C532 417.738 523.121 409.352 504.871 412.312C502.898 398.007 487.607 389.622 487.607 389.622C487.607 389.622 473.303 406.886 483.661 426.123C480.702 427.603 475.769 429.576 468.37 429.576H332.726C330.259 438.948 330.259 501.097 398.328 501.097C447.16 501.097 483.661 478.408 500.925 436.974C526.574 438.948 532 417.738 532 417.738Z" fill="white"/>
</g>
<g clip-path="url(#clip6_103_81)">
<path d="M804 304H668C634.863 304 608 330.863 608 364V500C608 533.137 634.863 560 668 560H804C837.137 560 864 533.137 864 500V364C864 330.863 837.137 304 804 304Z" fill="#242938"/>
<path fill-rule="evenodd" clip-rule="evenodd" d="M684.065 347C702.327 347 717.13 361.803 717.13 380.065C717.13 398.327 702.327 413.13 684.065 413.13C665.803 413.13 651 398.327 651 380.065C651 361.803 665.803 347 684.065 347Z" stroke="#2088FF" stroke-width="7.34783" stroke-linecap="round" stroke-linejoin="round"/>
<path fill-rule="evenodd" clip-rule="evenodd" d="M731.826 413.13C744 413.13 753.87 423 753.87 435.174C753.87 447.348 744 457.217 731.826 457.217C719.652 457.217 709.783 447.348 709.783 435.174C709.783 423 719.652 413.13 731.826 413.13Z" stroke="#2088FF" stroke-width="7.34783" stroke-linecap="round" stroke-linejoin="round"/>
<path fill-rule="evenodd" clip-rule="evenodd" d="M731.826 471.913C744 471.913 753.87 481.782 753.87 493.957C753.87 506.131 744 516 731.826 516C719.652 516 709.783 506.131 709.783 493.957C709.783 481.782 719.652 471.913 731.826 471.913Z" stroke="#2088FF" stroke-width="7.34783" stroke-linecap="round" stroke-linejoin="round"/>
<path fill-rule="evenodd" clip-rule="evenodd" d="M797.957 471.913C810.131 471.913 820 481.782 820 493.957C820 506.131 810.131 516 797.957 516C785.782 516 775.913 506.131 775.913 493.957C775.913 481.782 785.782 471.913 797.957 471.913Z" stroke="#79B8FF" stroke-width="7.34783" stroke-linecap="round" stroke-linejoin="round"/>
<path d="M739.308 430.056L728.032 441.317L722.555 435.859" stroke="#2088FF" stroke-width="7.34783" stroke-linecap="round" stroke-linejoin="round"/>
<path fill-rule="evenodd" clip-rule="evenodd" d="M797.957 413.13C810.131 413.13 820 423 820 435.174C820 447.348 810.131 457.217 797.957 457.217C785.782 457.217 775.913 447.348 775.913 435.174C775.913 423 785.782 413.13 797.957 413.13Z" stroke="#2088FF" stroke-width="7.34783" stroke-linecap="round" stroke-linejoin="round"/>
<path d="M805.438 430.056L794.162 441.317L788.686 435.859" stroke="#2088FF" stroke-width="7.34783" stroke-linecap="round" stroke-linejoin="round"/>
<path d="M673.044 368.353C673.044 365.462 676.229 363.703 678.676 365.245L697.461 377.078C699.758 378.525 699.746 381.879 697.439 383.309L678.653 394.957C676.206 396.475 673.044 394.714 673.044 391.835V368.353Z" stroke="#2088FF" stroke-width="7.34783" stroke-linecap="round" stroke-linejoin="round"/>
<path d="M680.391 413.13V468.239C680.391 482.442 692.064 493.956 706.109 493.956H709.783" stroke="#2088FF" stroke-width="7.34783" stroke-linecap="round" stroke-linejoin="round"/>
<path d="M709.595 438.847C711.624 438.847 713.269 437.203 713.269 435.173C713.269 433.144 711.624 431.5 709.595 431.5V438.847ZM676.717 413.259C676.717 427.391 688.174 438.847 702.305 438.847V431.5C692.231 431.5 684.065 423.333 684.065 413.259H676.717ZM702.305 438.847H709.595V431.5H702.305V438.847Z" fill="#2088FF"/>
<path d="M754.071 435.174H775.911" stroke="#2088FF" stroke-width="7.34783" stroke-linecap="round" stroke-linejoin="round"/>
<path fill-rule="evenodd" clip-rule="evenodd" d="M724.478 490.283C726.506 490.283 728.152 491.929 728.152 493.957C728.152 495.987 726.506 497.631 724.478 497.631C722.451 497.631 720.804 495.987 720.804 493.957C720.804 491.929 722.451 490.283 724.478 490.283Z" fill="#79B8FF"/>
<path fill-rule="evenodd" clip-rule="evenodd" d="M739.174 490.283C741.201 490.283 742.848 491.929 742.848 493.957C742.848 495.987 741.201 497.631 739.174 497.631C737.147 497.631 735.5 495.987 735.5 493.957C735.5 491.929 737.147 490.283 739.174 490.283Z" fill="#79B8FF"/>
<path d="M772.257 493.981L768.537 494.103" stroke="#79B8FF" stroke-width="7.34783" stroke-linecap="round"/>
</g>
<g clip-path="url(#clip7_103_81)">
<path d="M1108 304H972C938.863 304 912 330.863 912 364V500C912 533.137 938.863 560 972 560H1108C1141.14 560 1168 533.137 1168 500V364C1168 330.863 1141.14 304 1108 304Z" fill="#242938"/>
<path d="M1040 334C984.779 334 940 378.771 940 434.001C940 478.184 968.653 515.668 1008.39 528.891C1013.38 529.817 1015.22 526.722 1015.22 524.081C1015.22 521.696 1015.13 513.819 1015.08 505.463C987.263 511.512 981.393 493.664 981.393 493.664C976.844 482.105 970.289 479.032 970.289 479.032C961.216 472.825 970.973 472.953 970.973 472.953C981.015 473.658 986.303 483.258 986.303 483.258C995.222 498.546 1009.7 494.126 1015.4 491.571C1016.3 485.107 1018.89 480.696 1021.75 478.199C999.54 475.67 976.191 467.095 976.191 428.778C976.191 417.86 980.098 408.939 986.495 401.936C985.456 399.418 982.034 389.246 987.464 375.472C987.464 375.472 995.861 372.785 1014.97 385.723C1022.95 383.507 1031.5 382.396 1040 382.358C1048.5 382.396 1057.06 383.507 1065.05 385.723C1084.14 372.785 1092.52 375.472 1092.52 375.472C1097.97 389.246 1094.54 399.418 1093.51 401.936C1099.92 408.939 1103.8 417.86 1103.8 428.778C1103.8 467.187 1080.4 475.644 1058.13 478.119C1061.72 481.223 1064.92 487.308 1064.92 496.638C1064.92 510.018 1064.8 520.787 1064.8 524.081C1064.8 526.742 1066.6 529.86 1071.67 528.878C1111.38 515.64 1140 478.169 1140 434.001C1140 378.771 1095.23 334 1040 334ZM977.454 476.453C977.233 476.95 976.452 477.099 975.74 476.758C975.014 476.432 974.607 475.754 974.842 475.256C975.057 474.744 975.841 474.602 976.564 474.945C977.291 475.271 977.705 475.955 977.454 476.453ZM982.372 480.842C981.896 481.285 980.963 481.079 980.331 480.38C979.677 479.683 979.554 478.751 980.038 478.302C980.529 477.86 981.434 478.067 982.089 478.764C982.743 479.47 982.871 480.395 982.372 480.842ZM985.747 486.458C985.134 486.884 984.132 486.485 983.513 485.595C982.9 484.706 982.9 483.64 983.526 483.212C984.147 482.785 985.134 483.169 985.762 484.052C986.373 484.956 986.373 486.023 985.747 486.458ZM991.454 492.962C990.906 493.566 989.739 493.404 988.884 492.579C988.01 491.773 987.766 490.629 988.316 490.024C988.871 489.418 990.045 489.589 990.906 490.407C991.774 491.211 992.039 492.364 991.454 492.962ZM998.83 495.157C998.588 495.941 997.464 496.297 996.331 495.964C995.2 495.621 994.46 494.704 994.688 493.912C994.924 493.124 996.053 492.753 997.194 493.109C998.323 493.45 999.065 494.361 998.83 495.157ZM1007.22 496.089C1007.25 496.913 1006.29 497.597 1005.1 497.612C1003.91 497.639 1002.94 496.971 1002.93 496.16C1002.93 495.327 1003.87 494.65 1005.06 494.63C1006.25 494.607 1007.22 495.269 1007.22 496.089ZM1015.47 495.773C1015.61 496.577 1014.79 497.404 1013.61 497.624C1012.45 497.836 1011.37 497.339 1011.22 496.541C1011.08 495.716 1011.92 494.89 1013.08 494.676C1014.26 494.471 1015.32 494.955 1015.47 495.773Z" fill="white"/>
</g>
<defs>
<linearGradient id="paint0_linear_103_81" x1="938.346" y1="44.075" x2="1055.13" y2="202.673" gradientUnits="userSpaceOnUse">
<stop stop-color="#41D1FF"/>
<stop offset="1" stop-color="#BD34FE"/>
</linearGradient>
<linearGradient id="paint1_linear_103_81" x1="1034.55" y1="31.7433" x2="1055.68" y2="176.66" gradientUnits="userSpaceOnUse">
<stop stop-color="#FFEA83"/>
<stop offset="0.0833333" stop-color="#FFDD35"/>
<stop offset="1" stop-color="#FFA800"/>
</linearGradient>
<clipPath id="clip0_103_81">
<rect width="256" height="256" fill="white"/>
</clipPath>
<clipPath id="clip1_103_81">
<rect width="256" height="256" fill="white" transform="translate(304)"/>
</clipPath>
<clipPath id="clip2_103_81">
<rect width="256" height="256" fill="white" transform="translate(608)"/>
</clipPath>
<clipPath id="clip3_103_81">
<rect width="256" height="256" fill="white" transform="translate(912)"/>
</clipPath>
<clipPath id="clip4_103_81">
<rect width="256" height="256" fill="white" transform="translate(0 304)"/>
</clipPath>
<clipPath id="clip5_103_81">
<rect width="256" height="256" fill="white" transform="translate(304 304)"/>
</clipPath>
<clipPath id="clip6_103_81">
<rect width="256" height="256" fill="white" transform="translate(608 304)"/>
</clipPath>
<clipPath id="clip7_103_81">
<rect width="256" height="256" fill="white" transform="translate(912 304)"/>
</clipPath>
</defs>
</svg>
